<?xml version="1.0" encoding="utf-8"?>
<!-- Generator: Adobe Illustrator 20.0.0, SVG Export Plug-In . SVG Version: 6.00 Build 0)  -->
<!DOCTYPE svg PUBLIC "-//W3C//DTD SVG 1.1//EN" "http://www.w3.org/Graphics/SVG/1.1/DTD/svg11.dtd">
<svg version="1.1" id="Layer_1" xmlns="http://www.w3.org/2000/svg" xmlns:xlink="http://www.w3.org/1999/xlink" x="0px" y="0px"
	 width="160px" height="27px" viewBox="0 0 160 27" style="enable-background:new 0 0 160 27;" xml:space="preserve">
<style type="text/css">
	.st0{fill:#55D4F5;}
</style>
<g>
	<g>
		<path d="M56.1,10.6c-0.3-0.6-0.6-1-1.2-1.4h-2.8c-0.2,0.2-0.7,0.6-0.9,0.9v6.6c0,0,0.3,0.5,0.9,0.8h2.8c0.5-0.3,0.8-0.8,1.1-1.3
			l2.5,0.6c-0.2,0.6-0.5,1-0.8,1.4c-0.5,0.8-1.6,1.9-2.9,1.9H52c-0.5,0-1.1-0.2-1.5-0.4c-0.5-0.3-1.3-1.2-1.6-1.6
			c-0.3-0.4-0.4-0.9-0.4-1.4V10c0-0.5,0.1-1,0.4-1.4C49.2,8.2,50,7.3,50.5,7c0.4-0.2,0.9-0.4,1.4-0.4h2.9c1.4,0,2.4,1.1,2.9,1.9
			c0.4,0.5,0.6,1,0.8,1.4L56.1,10.6z"/>
		<path d="M74.5,13.2c-0.2,0.3-0.9,1-1.2,1.2c-0.2,0.1-0.4,0.2-0.5,0.3c1.1,2,2.9,5.3,2.9,5.3h-3L70,14.9h-2.1V20h-2.7V6.7h6.5
			c0.6,0,1.2,0.2,1.7,0.5c0.3,0.2,1,0.9,1.2,1.2c0.3,0.4,0.4,1,0.4,1.5v1.9C74.9,12.3,74.8,12.8,74.5,13.2z M72.2,9.8
			c-0.1-0.2-0.4-0.4-0.6-0.5h-3.8v3.1h3.8c0.1,0,0.4-0.3,0.6-0.5V9.8z"/>
		<path d="M90.2,20l-0.9-2.6h-4.7c-0.3,0.8-0.6,1.7-0.9,2.6h-2.9l4.6-13.4h3L93.1,20H90.2z M87,10.6c-0.5,1.4-1,2.9-1.5,4.3h3
			L87,10.6z"/>
		<path d="M103.6,9.3V20h-2.7V9.3h-3.6V6.7h9.9v2.6H103.6z"/>
		<path d="M113.5,20V6.7h8.8v2.6h-6.1V12h5.9v2.6h-5.9v2.8h6.1V20H113.5z"/>
		<path d="M129.5,20v-3.2h3.1V20H129.5z"/>
		<path d="M139.9,20V6.7h2.7V20H139.9z"/>
		<path d="M159.6,18.1c-0.3,0.4-1.1,1.3-1.6,1.6c-0.4,0.2-0.9,0.4-1.5,0.4h-3.4c-0.6,0-1.1-0.2-1.5-0.4c-0.5-0.3-1.4-1.2-1.6-1.6
			c-0.3-0.4-0.4-0.9-0.4-1.4V10c0-0.5,0.1-1,0.4-1.4c0.3-0.4,1.1-1.3,1.6-1.6c0.4-0.2,0.9-0.4,1.5-0.4h3.4c0.5,0,1.1,0.2,1.5,0.4
			c0.5,0.3,1.3,1.2,1.6,1.6C159.9,9,160,9.5,160,10v6.7C160,17.2,159.9,17.7,159.6,18.1z M157.3,10c-0.2-0.3-0.6-0.7-0.8-0.8h-3.3
			c-0.2,0.1-0.6,0.5-0.8,0.8v6.7c0.2,0.3,0.6,0.7,0.8,0.8h3.3c0.2-0.1,0.6-0.5,0.8-0.8V10z"/>
	</g>
	<polygon class="st0" points="35.3,9 26.4,9 26.4,0.2 17.5,0.2 17.5,9 0,9 0,17.9 8.5,17.9 8.5,26.8 17.5,26.8 17.5,17.9 35.3,17.9 
			"/>
</g>
</svg>
